<svg id="Livello_1" data-name="Livello 1" xmlns="http://www.w3.org/2000/svg" viewBox="0 0 1920 1920"><defs><style>.cls-1{fill:#fff;}</style></defs><title>Tavola disegno 5</title><path class="cls-1" d="M621.15,1338.44c-11.85,4-33.63,9.45-56.29,9.45-30.74,0-52.69-7.52-67.76-21.83-14-13.13-21.75-31.76-21.75-52.47,0-48.19,38-78.4,92.73-78.4,22,0,39,4.13,47.31,8.07L607.64,1231c-9.63-4-21.17-7.32-40.7-7.32-31,0-54.37,16.57-54.37,47,0,29.21,21.34,49,53.76,49,9.32,0,16.93-1.09,20.13-2.54v-29.91H560.1V1260h61Z"/><path class="cls-1" d="M689.57,1346.34v-62.7l-52-86.9h41.31l16.9,36.11c5.17,11.11,8.62,18.06,12.77,27.62H709c3.84-8.85,7.82-16.91,12.7-27.45l17.17-36.28h40.79L725,1282.51v63.83Z"/><path class="cls-1" d="M930,1287.48c-.68-19.39-1.28-41.77-1.28-65.63h-.62c-5.46,20.18-12.52,42.4-19.09,62.06l-20.1,60H860.74l-17.35-59.57c-5.48-19.45-10.78-41.59-15-62.47H828c-.84,21.69-1.6,46.19-2.55,66.1l-2.87,58.39H789.15l9.18-149.6h49.89l15.48,48.62c4.92,16.54,9.82,36.1,13.38,53.84h.79c4.7-17.55,10.34-38.24,15.8-54.15l17.25-48.31h48.76l7.68,149.6H932.2Z"/><path class="cls-1" d="M1030.58,1196.74v56.72h64.26v-56.72h35.38v149.6h-35.38v-62.6h-64.26v62.6H995.2v-149.6Z"/><path class="cls-1" d="M1196.16,1196.74v82.31c0,27.14,11.1,42.47,31.41,42.47,20.91,0,31.92-14.69,31.92-42.47v-82.31h35.38V1278c0,48.69-26.25,71-68.85,71-39.92,0-65.24-20.72-65.24-71.65v-80.61Z"/><path class="cls-1" d="M1325.47,1198.74c8.93-1.65,28.79-3.33,47.17-3.33,22.87,0,35.22,2.11,46.37,7.67,11.3,5.16,20,15.43,20,30.23,0,13.13-8,25.39-25.53,31.55v.49c17,4.32,30.87,16.93,30.87,37,0,14.14-7.06,25.16-17.09,32.57-11.66,8.5-30.68,13.12-62,13.12a286.33,286.33,0,0,1-39.75-2.38Zm35,56.62H1373c20.38,0,30.2-7,30.2-17.75,0-11.48-9.77-16.65-26.19-16.65a94,94,0,0,0-16.54,1.08Zm0,66.12c3.7.59,8.35.63,15.13.63,16.52,0,31.31-5.48,31.31-21.43,0-15-14.48-20.34-33.13-20.34h-13.31Z"/><rect class="cls-1" x="813.51" y="746.79" width="292.98" height="175.79"/><rect class="cls-1" x="1135.79" y="571" width="146.49" height="527.37" rx="31.77"/><rect class="cls-1" x="1311.58" y="639.28" width="146.49" height="392.72" rx="27.41"/><rect class="cls-1" x="461.93" y="639.28" width="146.49" height="392.72" rx="27.41"/><rect class="cls-1" x="637.72" y="571" width="146.49" height="527.37" rx="31.77"/></svg>